# xmcd
#
# Track frame offsets: 
#        182
#        20785
#        59915
#        85775
#        105600
#        147750
#        165337
#        184530
#        202022
#
# Disc length: 3038 seconds
#
# Revision: 0
# Processed by: cddbd v1.4PL0 Copyright (c) Steve Scherf et al.
# Submitted via: ExactAudioCopy v0.95a3
#
DISCID=790bdc09
DTITLE=Jimi Hendrix - Black Devil
DYEAR=1966
DGENRE=Blues
TTITLE0=Killing Floor
TTITLE1=Catfish Blues
TTITLE2=Foxy Lady
TTITLE3=Red House
TTITLE4=Drivin' South
TTITLE5=The Wind Cries Mary
TTITLE6=Fire
TTITLE7=Little Wing
TTITLE8=Purple Haze
EXTD=
EXTT0=
EXTT1=
EXTT2=
EXTT3=
EXTT4=
EXTT5=
EXTT6=
EXTT7=
EXTT8=
PLAYORDER=
